<svg xmlns="http://www.w3.org/2000/svg" width="1790" height="598"><path fill="#35DC9F" d="M1007 12h167l15 26c5.232 8.97 5.232 8.97 10.469 17.938 4.336 7.434 8.63 14.893 12.926 22.351Q1218.664 89.163 1225 100a5207 5207 0 0 1 16.573 28.586c2.929 5.086 5.863 10.17 8.818 15.242l1.567 2.694a2584 2584 0 0 0 2.894 4.958c3.148 5.409 3.148 5.409 3.148 6.52l-334 1-11 20c-2.274 3.951-4.555 7.89-6.875 11.813A1428 1428 0 0 0 892.5 214.5a1458 1458 0 0 1-13.437 23.375c-5.479 9.34-10.802 18.758-16.07 28.217-12.48 22.372-12.48 22.372-16.825 28.486-1.566 3.247-.979 4.947-.168 8.422 1.112 2.48 1.112 2.48 2.598 4.852l1.654 2.784 1.81 2.989q1.929 3.24 3.852 6.484l2.036 3.42c3.059 5.16 6.022 10.374 8.987 15.588a7637 7637 0 0 0 6.071 10.65c3.477 6.09 6.983 12.162 10.492 18.233 7.25 12.548 14.443 25.129 21.625 37.716q2.685 4.702 5.375 9.401l1.64 2.866 2.968 5.184 1.341 2.345 1.136 1.983c2.16 3.823 4.283 7.667 6.415 11.505l334 1c-6.85 13.699-6.85 13.699-10.5 19.75l-2.613 4.395-1.405 2.357c-2.748 4.631-5.458 9.284-8.17 13.935l-1.789 3.068c-6.88 11.809-13.702 23.652-20.523 35.495-7.412 12.869-14.83 25.734-22.312 38.563-.527.901-1.053 1.803-1.594 2.732a155 155 0 0 1-3.257 5.328c-1.49 2.74-2.254 4.692-3.049 7.623-1.773 5.394-3.961 9.558-8.788 12.754-11.105 3.118-23.324 2.03-34.736 1.724-4.653-.107-9.307-.117-13.961-.137-8.803-.052-17.601-.192-26.402-.363-10.024-.19-20.048-.283-30.073-.368-20.611-.178-41.22-.477-61.828-.856l-1.183-2.121q-2.707-4.849-5.415-9.695l-1.86-3.336a889 889 0 0 0-11.98-20.785l-1.685-2.834-1.522-2.557c-3.713-6.256-7.35-12.555-10.98-18.86l-1.934-3.357-3.732-6.485a5343 5343 0 0 0-21.084-36.283l-1.097-1.872a2726 2726 0 0 0-11.508-19.495l-1.84-3.088a1619 1619 0 0 0-3.422-5.708l-1.512-2.536-1.322-2.202C924 443 924 443 924 441l-2.523.036q-30.41.434-60.82.638c-9.805.067-19.608.158-29.412.307q-12.82.197-25.64.242c-4.525.017-9.048.057-13.572.151a504 504 0 0 1-12.785.096q-2.341.005-4.682.08c-4.755.144-9.021.055-13.566-1.55-3.741-3.954-5.744-8.039-8-13-1.17-2.05-2.357-4.09-3.57-6.113a4276 4276 0 0 1-3.555-6.2l-3.945-6.863-1.99-3.46c-2.96-5.132-5.949-10.249-8.94-15.364a4254 4254 0 0 1-14.562-25.125 2272 2272 0 0 0-15.5-26.506c-5.107-8.616-10.105-17.293-15.09-25.98l-1.828-3.182-1.622-2.829A112 112 0 0 0 679 301c.217-5.232 2.494-9.036 5.188-13.375l2.746-4.55 1.5-2.472c2.823-4.691 5.564-9.431 8.316-14.166l3.61-6.19c.903-1.552.903-1.552 1.826-3.134Q706.59 249.555 711 242l3.5-6 21-36 1.753-3.006 3.468-5.943q4.626-7.925 9.236-15.86l1.955-3.36q1.87-3.215 3.734-6.43l1.686-2.897 1.491-2.568C760 158 760 158 761 157c2.1-.097 4.205-.122 6.308-.12l2.02-.003c2.25-.002 4.499.004 6.748.01l4.819-.001q6.56.001 13.12.013 6.85.007 13.698.008 12.978.005 25.956.021 14.771.016 29.543.022 30.394.016 60.788.05l.934-2.373c.959-2.363 2.021-4.481 3.289-6.69l1.354-2.367 1.486-2.57 1.58-2.751c5.235-9.086 10.55-18.125 15.86-27.166 6.611-11.256 13.14-22.558 19.65-33.873a21159 21159 0 0 1 9.41-16.335l1.867-3.24c4.856-8.415 9.743-16.81 14.652-25.194 4.359-7.452 8.634-14.944 12.918-22.441"/><path fill="#AE0C0A" d="M924 440h334c-6.85 13.699-6.85 13.699-10.5 19.75l-2.613 4.395-1.405 2.357c-2.748 4.631-5.458 9.284-8.17 13.935l-1.789 3.068c-6.88 11.809-13.702 23.652-20.523 35.495-7.412 12.869-14.83 25.734-22.312 38.563-.527.901-1.053 1.803-1.594 2.732a155 155 0 0 1-3.257 5.328c-1.49 2.74-2.254 4.692-3.049 7.623-1.773 5.394-3.961 9.558-8.788 12.754-11.105 3.118-23.324 2.03-34.736 1.724-4.653-.107-9.307-.117-13.961-.137-8.803-.052-17.601-.192-26.402-.363-10.024-.19-20.048-.283-30.073-.368-20.611-.178-41.22-.477-61.828-.856l-1.183-2.121q-2.707-4.849-5.415-9.695l-1.86-3.336a889 889 0 0 0-11.98-20.785l-1.685-2.834-1.522-2.557c-3.713-6.256-7.35-12.555-10.98-18.86l-1.934-3.357-3.732-6.485a5075 5075 0 0 0-19.977-34.394l-2.204-3.762a2025 2025 0 0 0-11.508-19.459l-1.84-3.074a1087 1087 0 0 0-3.422-5.669l-1.512-2.526-1.322-2.186C924 443 924 443 924 440"/><path fill="#F3C406" d="M1007 12h167l15 26c5.232 8.97 5.232 8.97 10.469 17.938 4.336 7.434 8.63 14.893 12.926 22.351Q1218.664 89.163 1225 100a5207 5207 0 0 1 16.573 28.586c2.929 5.086 5.863 10.17 8.818 15.242l1.567 2.694a2584 2584 0 0 0 2.894 4.958c3.148 5.409 3.148 5.409 3.148 6.52H924c.85-3.401 1.655-5.433 3.344-8.402l1.501-2.652 1.655-2.883 1.737-3.05c5.365-9.387 10.836-18.712 16.317-28.032 6.598-11.22 13.108-22.489 19.599-33.77a21159 21159 0 0 1 9.41-16.336l1.867-3.24c4.856-8.415 9.743-16.81 14.652-25.194 4.359-7.452 8.634-14.944 12.918-22.441"/><path fill="#209E61" d="m772.215 155.631 4.543.12q2.41.005 4.82-.005c4.35-.003 8.697.062 13.046.139 4.55.069 9.1.075 13.65.088 8.61.034 17.218.124 25.827.235 9.804.123 19.608.183 29.413.238 20.163.115 40.324.309 60.486.554-1.237 3.808-2.522 7.226-4.512 10.703l-1.523 2.68-1.653 2.867-1.738 3.046A3470 3470 0 0 1 909 186l-1.837 3.196c-3.744 6.51-7.5 13.014-11.26 19.514a8821 8821 0 0 0-25.9 45.039 7163 7163 0 0 1-20.426 35.514c-1.867 3.24-3.721 6.49-5.577 9.737H679c1.381-3.453 2.676-6.381 4.477-9.57l1.507-2.673 1.641-2.882 1.731-3.052c5.08-8.914 10.305-17.738 15.554-26.553 5.272-8.86 10.446-17.773 15.586-26.71a3854 3854 0 0 1 14.22-24.493 2396 2396 0 0 0 10.257-17.715q2.4-4.178 4.79-8.362l1.764-3.072 1.524-2.663L754 168l1.168-2.68c4.097-8.213 8.155-9.708 17.047-9.689"/><path fill="#152534" d="M1323.5 200.879c21.22-.524 39.536 6.184 55.08 20.59 19.651 19.11 29.243 48.163 29.854 75.144.037 2.9.028 5.799.004 8.7l-.01 2.302c-.071 12.173-.974 23.651-4.428 35.385l-.666 2.35c-4.237 14.69-10.338 26.943-20.334 38.65l-1.863 2.473C1370.21 399.396 1353.478 406.775 1337 409c-15.043.9-30.49.383-44-7l-2.414-1.273c-6.67-3.738-12.148-8.379-17.586-13.727l-2.125-2.086c-21.387-22.473-26.695-56.424-26.187-86.125.565-16.495 3.764-32.624 10.312-47.789l.825-1.913c3.664-8.282 8.225-15.262 14.175-22.087l1.418-1.852c10.723-13.773 28.261-21.703 45.27-23.898 2.27-.171 4.538-.261 6.812-.371M1312 252l-1.605 1.434c-8.431 8.69-11.482 20.98-13.395 32.566l-.559 3.203c-2.66 22.884-.314 47.165 12.559 66.797 4.101 4.837 9.838 7.419 16.043 8.285 6.329.282 11.315-1.899 16.395-5.473 13.118-12.054 15.781-33.975 16.73-50.789.1-13.45-2.243-26.217-6.168-39.023l-.867-2.848c-2.715-7.771-7.396-13.734-14.32-18.214-9.145-2.25-17.567-2.451-24.813 4.062M1532 208l2.953 1.355c12.947 6.733 24.36 18.73 31.047 31.645l1.79 3.414c16.34 32.421 17.865 72.081 6.71 106.39-8.089 23.338-22.359 41.783-44.75 52.946-19.092 8.16-41.849 7.364-61 0-5.79-2.571-10.777-5.847-15.75-9.75l-2.117-1.652c-20.468-16.924-30.262-44.62-32.883-70.348-.235-5.477-.246-10.956-.25-16.437l-.002-2.312c.015-11.033.343-21.542 3.252-32.251l.552-2.049c2.38-8.645 5.337-16.965 9.448-24.951l1.45-2.883c9.855-18.279 26.195-31.895 46.12-37.89 2.142-.515 4.251-.91 6.43-1.227l2.16-.332c15.525-2.054 30.585-.246 44.84 6.332m-50.625 46.875c-9.43 13.198-12.495 29.204-13.375 45.125l-.125 2.23c-.492 18.36 2.677 40.907 15.145 55.063 5.402 5.01 10.395 7.176 17.898 6.96 5.802-.707 11.003-3.067 15.082-7.253 14.297-19.802 16.914-46.758 13.273-70.367-2.406-13.14-5.88-28.987-17.46-37.07-10.472-5.818-22.798-3.607-30.438 5.312M1202.188 218.25c11.228 10.54 16.537 22.593 17.062 37.938-.182 13.34-4.982 24.766-14.312 34.25-2.501 2.397-4.97 4.586-7.747 6.66L1195 299v3c2.36 1.583 2.36 1.583 5.375 3.063 12.475 6.98 20.629 17.036 24.836 30.597 3.41 14.434 2.096 27.98-5.113 40.95-9.52 15.386-25.29 25.22-42.66 29.577-24.543 5.683-48.616 3.412-70.75-9-13.216-8.43-22.133-19.185-26.688-34.187-3.316-16.182.315-31.338 9.336-45.027 6.505-8.291 16.212-13.708 25.664-17.973l-2.012-1.172c-12.548-7.4-21.453-16.578-25.3-31.078-2.49-13.572-.575-27.086 6.39-39.016 10.469-14.894 26.3-23.21 43.922-26.734 22.82-3.654 46.449 1.122 64.188 16.25M1137 243.938c-4.438 6.795-4.946 13.067-4 21.062 1.97 5.176 5.324 9.035 10 12 6.054 2.69 11.512 2.844 17.688.75 5.474-2.892 8.995-5.685 11.582-11.344 1.851-6.1 1.75-12.867-.707-18.781-3.173-5.332-8.134-8.606-14.02-10.355-7.586-1.207-15.341.78-20.543 6.667M1191 299l-1 2 3-1zm-54.926 29.23c-4.885 7.148-5.966 13.156-5.074 21.77 2.03 7.098 5.588 11.13 11.816 14.941 5.876 2.849 12.23 2.926 18.371.872 6.062-2.539 9.516-7.279 12.813-12.813 2.206-7.072 1.695-14.281-1.598-20.89-3.293-4.954-8.475-9.84-14.402-11.11-8.417-1.088-16.198.596-21.926 7.23"/><path fill="#F72C83" d="M1091 440h167c-6.85 13.699-6.85 13.699-10.5 19.75l-2.613 4.395-1.405 2.357c-2.748 4.631-5.458 9.284-8.17 13.935l-1.789 3.068c-6.88 11.809-13.702 23.652-20.523 35.495-12.898 22.393-25.874 44.74-39 67-2.475-2.262-4.025-4.553-5.645-7.48l-1.528-2.74-1.64-2.967c-4.6-8.242-9.276-16.428-14.062-24.563-5.703-9.718-11.21-19.535-16.662-29.396-5.186-9.377-10.476-18.69-15.813-27.981-16.092-28.022-16.092-28.022-23.65-41.498l-1.258-2.223C1091 442.233 1091 442.233 1091 440"/><path fill="#F8CD02" d="M1007 12c4.482 3.745 6.708 8.671 9.375 13.75a669 669 0 0 0 13.5 24.063c4.76 8.095 9.429 16.233 14 24.437 6.594 11.832 13.299 23.598 20.033 35.35a8540 8540 0 0 1 9.567 16.743l4.034 7.07 1.87 3.274 1.801 3.16a471 471 0 0 0 3.839 6.524l1.946 3.254 1.765 2.914C1090 155 1090 155 1090 158H924c.85-3.401 1.655-5.433 3.344-8.402l1.501-2.652 1.655-2.883 1.737-3.05c5.365-9.387 10.836-18.712 16.317-28.032 6.598-11.22 13.108-22.489 19.599-33.77a21159 21159 0 0 1 9.41-16.336l1.867-3.24a5339 5339 0 0 1 14.762-25.387c4.316-7.39 8.588-14.803 12.808-22.248"/><path fill="#E6131E" d="M1090 440c2.367 3.004 4.248 6.099 6.082 9.453l1.803 3.277.95 1.736c5.255 9.591 10.615 19.11 16.165 28.534 5.62 9.553 11.03 19.21 16.384 28.914 4.772 8.627 9.7 17.153 14.694 25.654a824 824 0 0 1 11.214 19.74c3.894 7.07 7.913 14.066 11.95 21.054l1.485 2.58 1.33 2.302C1173 585 1173 585 1173 586h-165c1.553-3.883 3.13-7.146 5.203-10.734l1.95-3.39 1.035-1.789c1.821-3.15 3.633-6.306 5.445-9.462l1.118-1.946c3.51-6.115 6.946-12.269 10.374-18.429 4.57-8.204 9.241-16.341 14-24.437 4.99-8.494 9.793-17.068 14.477-25.733 4.805-8.877 9.81-17.632 14.845-26.379 2.778-4.832 5.54-9.673 8.303-14.514l4.339-7.593z"/><path fill="#F6910B" d="M1008 12h165c-8.01 16.02-8.01 16.02-12.437 23.625l-3.13 5.43-1.672 2.893a4755 4755 0 0 0-9.636 16.802l-1.026 1.793c-5.976 10.452-11.872 20.947-17.744 31.457-8.244 14.755-16.598 29.448-24.98 44.125l-1.055 1.848-2.984 5.222-1.733 3.032A465 465 0 0 1 1092 156c-3.906-1.302-4.247-2.686-6.23-6.238l-1.91-3.382-2.047-3.692q-1.07-1.906-2.143-3.808a3489 3489 0 0 1-4.452-7.932c-2.092-3.732-4.21-7.448-6.34-11.159l-3.006-5.239a2609 2609 0 0 1-15.997-28.3c-5.092-9.136-10.315-18.186-15.61-27.205-4.907-8.379-9.67-16.834-14.384-25.322a769 769 0 0 0-10.58-18.413C1008 13 1008 13 1008 12"/><path fill="#3BB2DB" d="M843 299c3.439 4.006 5.89 8.193 8.375 12.813 4.002 7.324 8.146 14.553 12.375 21.75 4.933 8.404 9.759 16.86 14.5 25.375 4.203 7.545 8.457 15.05 12.861 22.48 9.134 15.415 18.026 30.974 26.827 46.582l1.846 3.256 1.68 2.994 1.489 2.64C924 439 924 439 924 441H761l8-14q3.32-5.934 6.625-11.875c5.262-9.43 10.65-18.78 16.117-28.092 4.236-7.234 8.364-14.523 12.446-21.846a1575 1575 0 0 1 14.882-26.144c2.262-3.884 4.501-7.78 6.735-11.68l3.016-5.258q1.442-2.517 2.878-5.036c3.551-6.184 7.247-12.202 11.301-18.069"/><path fill="#29DD3E" d="M761 157h163c-1.376 4.13-2.432 7.07-4.512 10.703l-1.523 2.68-1.653 2.867-1.738 3.046A3470 3470 0 0 1 909 186l-1.837 3.196q-5.618 9.764-11.26 19.514a8821 8821 0 0 0-25.9 45.039 7032 7032 0 0 1-18.894 32.864Q847.537 292.796 844 299c-3.151-2.91-5.23-5.8-7.328-9.531l-1.9-3.353-2.022-3.616-2.128-3.765q-2.214-3.913-4.42-7.83a3078 3078 0 0 0-9.33-16.41l-2-3.503a2822 2822 0 0 0-15.794-27.266c-4.468-7.643-8.832-15.34-13.169-23.056-4.6-8.166-9.311-16.263-14.065-24.34l-1.653-2.814-1.431-2.43c-2.655-4.656-5.193-9.38-7.76-14.086"/><path fill="#142433" d="M936 209h78v192h-51V252h-28q-.036-8.944-.055-17.89-.008-3.045-.02-6.09a3325 3325 0 0 1-.023-8.735l-.015-2.768c0-2.173.05-4.345.113-6.517z"/><path fill="#CB7409" d="M1105 12h68c-8.01 16.02-8.01 16.02-12.437 23.625l-3.13 5.43-1.672 2.893a4755 4755 0 0 0-9.636 16.802l-1.026 1.793c-5.976 10.452-11.872 20.947-17.744 31.457-8.244 14.755-16.598 29.448-24.98 44.125l-1.055 1.848-2.984 5.222-1.733 3.032A465 465 0 0 1 1092 156l-3-1c3.226-32.764 6.51-65.523 10.533-98.2q1.042-8.5 2.075-17 1.693-13.9 3.392-27.8"/><path fill="#B80D18" d="M1092 445c2.828 2.517 4.48 5.327 6.336 8.61l1.956 3.44 2.083 3.7 2.161 3.81q2.729 4.814 5.444 9.632 2.27 4.02 4.543 8.038 2.415 4.272 4.829 8.546c5.51 9.763 11.078 19.494 16.648 29.224q3.97 6.937 7.938 13.875l1.027 1.797q7.858 13.747 15.635 27.54a1671 1671 0 0 0 11.107 19.436C1173 585 1173 585 1173 586h-68c-3.53-37.663-3.53-37.663-5.195-55.7l-.18-1.957-.95-10.3A39714 39714 0 0 1 1092 445"/><path fill="#152534" d="m63.75 235.688 3.828-.088c7.016-.048 11.75.096 17.422 4.4v2l2.25.316c5.464 1.359 9.166 5.475 12.375 9.95 3.666 6.457 4.314 12.412 3.375 19.734-1.125 3.563-1.125 3.563-3 7-.425.842-.85 1.684-1.29 2.55-3.304 6.39-7.162 11.898-11.71 17.45l-1.812 2.625c-10.901 11.835-26.646 14.424-41.836 16.797-3.212.388-3.212.388-5.352 1.578a146 146 0 0 0-2.715 8.086l-1.58 5.008q-1.234 3.962-2.462 7.927c-.79 2.545-1.592 5.086-2.395 7.627l-.73 2.397c-1.187 3.746-2.12 6.39-5.118 8.955-3.015 1.13-3.832 1.056-7 0-3.057-2.822-3.8-6.061-4.133-10.14.265-5.712 2.03-11.169 3.548-16.652.602-2.272 1.131-4.55 1.64-6.845l.513-2.304q.483-2.192.948-4.387c.926-4.112 2.275-7.12 4.484-10.672a159 159 0 0 0 2.5-7.312q.771-2.376 1.547-4.75l.9-2.758c1.972-5.955 4.015-11.886 6.055-17.817q1.109-3.228 2.215-6.456l1.392-4.052 1.25-3.636c.713-2.011 1.47-4.009 2.29-5.98 1.044-2.746.883-4.762.663-7.676-.083-3.864.029-6.15 2.5-9.188 5.51-4.869 12.448-3.635 19.438-3.687M60 256c-1.598 2.841-2.936 5.768-4.25 8.75l-1.164 2.611C46.524 284.642 46.524 284.642 43 303c10.521 1.032 20.506-3.765 28.785-10.004C79.145 286.363 83.411 277.465 86 268c.087-5.507-1.53-8.758-5-13-3.748-2.725-6.45-3.432-11.062-3.437l-3.098-.06c-3.692.646-4.59 1.504-6.84 4.497M475.25 240.688c3.75.312 3.75.312 6.688 1.812 2.411 2.924 2.442 4.662 2.336 8.376-.44 3.416-1.968 6.206-3.587 9.186-4.211 8.328-7.396 16.968-10.5 25.75l-.715 2.003c-6.488 18.2-8.747 33.95-8.257 53.216l.043 3.375.067 3.041C461 350 461 350 459.619 351.825c-2.13 1.546-3.507 1.576-6.119 1.55l-2.344.023C449 353 449 353 447.324 351.988c-2.068-3.105-2.434-6.56-3.012-10.175l-.392-2.272c-.317-1.845-.62-3.693-.92-5.541l-1.469 1.574c-6.197 6.448-12.322 11.79-21.367 13.39-4.83.08-7.645-2.53-10.93-5.632-3.95-4.477-5.108-8.27-4.754-14.203 1.662-10.008 5.191-19.15 11.52-27.129l1.434-1.957c3.454-4.447 7.06-7.55 12.566-9.043 7.119-.696 13.226-.135 20 2 .23-.724.461-1.447.7-2.193 7.836-24.427 7.836-24.427 12.613-35.12l.947-2.128c5.706-12.363 5.706-12.363 10.99-12.871M428 312c-4.046 6.388-6.708 12.415-7 20 7.471 0 12.508-4.256 18-9 3.363-3.946 5.779-6.834 6.313-12.062-.098-2.878-.098-2.878-1.438-4.813-6.657-3.994-11.638.863-15.875 5.875M549 238c4.693.46 8.298.952 12 4 1.166 3.225 1.082 4.758-.029 8.032l-1.62 3.394-.873 1.869a541 541 0 0 1-1.874 3.964 804 804 0 0 0-4.854 10.42l-.974 2.119C546.286 281.644 542.6 291.8 539 302l2.191-1.805a77 77 0 0 1 7.746-5.32l2.465-1.508c6.995-3.681 13.805-4.329 21.598-3.367 3.736 1.642 5.564 4.375 7.875 7.688 2.37 6.976 1.84 12.5-1.25 19.187C573.827 327.449 566.347 335.817 556 342l-2.687 1.719C547.05 347.49 541.39 349.533 534 349c-3.778-1.496-5.927-3.509-8-7v-3c3-2 3-2 6.5-2.687 12.793-3.041 25.118-14.526 32.355-25.051 1.446-2.434 1.446-2.434 1.145-6.262-7.29.162-12.192 3.869-18 8l-1.875 1.305c-4.948 3.83-8.567 8.882-12.307 13.846-2.136 2.82-3.846 4.868-6.818 6.849-3.715 0-5.016-1.013-7.875-3.437-2.783-3.65-2.122-6.489-1.57-10.849.705-4.296 1.717-8.459 2.883-12.651l.786-2.84c4.91-17.135 11.528-33.713 18.651-50.036l1.37-3.143c2.232-5.008 4.519-9.611 7.755-14.044M595 283c6.849-.652 6.849-.652 9.875 1.063 4.68 8.06 3.235 17.581 3.047 26.535-.088 6.835.254 12.803 2.078 19.402 4.189-7.995 8.14-15.93 11.188-24.437 4.889-13.64 4.889-13.64 9.812-18.563 3.375-.437 3.375-.437 7 0 2.438 2 2.438 2 4 5 .464 5.964-.448 10.106-3.062 15.5l-1.035 2.227a776 776 0 0 1-2.434 5.168 1107 1107 0 0 0-4.163 8.917 5549 5549 0 0 1-4.931 10.625l-.967 2.083C608.41 373.074 608.41 373.074 591 384c-.607.4-1.214.8-1.84 1.21-3.384 1.237-6.79 1.173-10.347 1.165l-2.3-.005c-5.636-.123-10.975-.703-15.513-4.37-1.887-3.106-2.467-5.36-2-9 1-1.812 1-1.812 3-3 5.001-.397 7.572-.235 12 2 3.902.829 7.4.798 11.012-1.004C591.832 365.697 597.367 356.8 601 349c0-3.547-.597-4.005-2.812-6.625-5.714-7.397-6.777-15.22-7.188-24.375l-.125-2.406c-.166-6.559.423-13.067 1-19.594l.238-2.828.254-2.672.222-2.406C593 286 593 286 595 283M162.875 285.625c3.812.082 3.812.082 6.125 2.25 2.695 8.423.43 16.882-1.266 25.316-.823 4.273-1.347 8.478-1.734 12.809 8.724-7.93 13.668-17.819 18.055-28.59 3.308-7.913 3.308-7.913 6.945-9.41 3.257.133 5.237.395 7.813 2.438 2.653 3.491 2.43 6.233 2.187 10.562-1.059 3.57-1.059 3.57-2.437 7.125-2.544 6.622-3.702 11.766-3.563 18.875 4.81-.424 7.667-2.71 11-6 1.858-2.293 3.47-4.705 5.063-7.187l1.308-1.993c2.906-4.493 5.434-9.061 7.594-13.965C221 296 221 296 224 294c3.063.125 3.063.125 6 1 3.222 5.04 2.564 10.355 1.371 15.95C227.25 324.09 216.285 334.52 205 342c-5.178 2.635-10.3 2.669-16 2-3.062-1.5-3.062-1.5-5-4-.873-2.646-1.417-5.267-2-8l-2-1-.746 1.746c-3.653 6.567-10.218 10.807-17.211 13.074-2.708.238-3.833-.244-6.043-1.82-1.45-2.242-1.45-2.242-2.687-4.875l-1.262-2.617c-4.427-10.565-2.55-23.825-.301-34.758l.475-2.38c1.435-6.374 3.485-13.052 10.65-13.745M397.125 284.688c4.266 3.431 6.421 5.638 7.875 11 .555 7.566-3.198 13.72-7.937 19.312-4.653 5.18-9.225 6.355-16.063 7q-3.975-.121-7.937-.437l-2.073-.159A749 749 0 0 1 366 321c-.08 4.55-.058 7.885 2 12 1.802 1.802 4.143 1.5 6.547 1.504 4.22-.867 7.348-3.517 10.742-6.07 3.411-1.804 5.065-1.513 8.711-.434 1.938 1.75 1.938 1.75 3 4 .12 4.436-2.345 7.172-5.207 10.293-5.68 5.408-11.931 8.244-19.793 8.707-7.61-.55-13.123-2.812-18.312-8.562-4.574-6.607-3.395-16.691-2.688-24.438 2.175-11.945 9.506-23.465 19-31 7.483-5.054 18.94-6.634 27.125-2.312M373 304.188 372 306l1 3c3.982.488 7.515.851 11.086-1.195 3.162-2.655 5.21-5.017 6.914-8.805-1.782-2.376-2.8-2.96-5.75-3.562-5.494.95-8.599 4.756-12.25 8.75M280.125 284.688c4.266 3.431 6.421 5.638 7.875 11 .555 7.566-3.198 13.72-7.937 19.312-4.653 5.18-9.225 6.355-16.063 7q-3.974-.121-7.937-.437l-2.073-.159A749 749 0 0 1 249 321c-.08 4.55-.058 7.885 2 12 1.802 1.802 4.143 1.5 6.547 1.504 4.22-.867 7.348-3.517 10.742-6.07 3.411-1.804 5.065-1.513 8.711-.434 1.938 1.75 1.938 1.75 3 4 .12 4.436-2.345 7.172-5.207 10.293-5.68 5.408-11.931 8.244-19.793 8.707-7.61-.55-13.123-2.812-18.312-8.562-4.574-6.607-3.395-16.691-2.688-24.438 2.175-11.945 9.506-23.465 19-31 7.483-5.054 18.94-6.634 27.125-2.312M256 304.188 255 306l1 3c3.982.488 7.515.851 11.086-1.195 3.162-2.655 5.21-5.017 6.914-8.805-1.782-2.376-2.8-2.96-5.75-3.562-5.494.95-8.599 4.756-12.25 8.75M135.305 287.684c4.31 2.229 5.925 4.94 7.695 9.316 1.727 14.736-2.173 26.146-11 38-7.612 8.979-15.15 14.25-26.887 15.969-4.906.049-8.094-1.092-11.8-4.281C88.419 341 86.843 336.499 87 329c1.888-13.751 8.914-24.692 19-34 8.973-6.647 17.97-10.679 29.305-7.316M115 309c-4.973 5.313-9.953 12.676-10.02 20.191.256 2.11.256 2.11 1.02 4.809 3.437.277 5.426.35 8.414-1.469 4.861-4.466 8.162-8.385 10.586-14.531l1.25-2.375c1.188-4.158.9-8.33.75-12.625-5.548 0-7.984 2.372-12 6M306 283a365 365 0 0 1 4.875-.125l2.742-.07C316 283 316 283 318 285c1.02 6.844-1.958 11.991-5 18l1 1 1.836-1.574c8.613-7.169 15.92-12.437 27.508-11.914 2.656.488 2.656.488 5.969 2.675C351 296 351 296 351.063 298.626c-1.276 2.85-2.461 3.694-5.063 5.375-2.086.668-2.086.668-4.375 1.188-12.248 3.499-24.889 11.735-32.3 22.171-2.133 4.253-3.087 8.773-4.262 13.364-1.006 3.102-1.775 4.983-4.063 7.277-1.957.895-1.957.895-4 1-1.887-.926-1.887-.926-3.687-2.312l-1.825-1.364C290 344 290 344 289 342c-.317-6.729.477-12.707 2-19.25l.658-2.86C294.765 307.075 299.16 294.32 306 283M1326 450c6.07 6.442 9.087 13.039 9.438 21.875-.269 8.873-3.302 15.901-9.376 22.367-6.936 5.912-15.049 8.349-24.062 7.758-10.097-1.947-16.69-6.717-22.773-14.875-4.004-6.936-4.154-14.337-3.227-22.125 3.091-9.694 8.621-16.118 17.5-20.875 11.554-3.714 23.266-2.407 32.5 5.875m-40 9c-3.717 5.924-3.892 12.204-3 19 2.06 7.099 5.572 11.121 11.816 14.941 5.43 2.632 11.527 2.947 17.371 1.528 7.456-2.598 11.326-6.496 14.813-13.469 2-6.472 1.858-13.878-.832-20.117-3.489-5.624-8.973-9.484-15.234-11.45-10.17-2.28-18.226 2.18-24.934 9.567M1646.68 523.852c6.954 5.84 11.664 11.621 12.754 20.8.343 10.408-1.602 18.043-8.653 25.778-7.405 6.528-15.28 8.128-24.914 7.906-8.356-.726-14.546-4.98-20.172-11.04-5.011-6.789-6.935-14.984-5.695-23.296 2.049-8.656 5.87-15.472 13.277-20.566 10.398-6.073 23.241-6.604 33.403.418m-36.27 12.144c-3.69 5.244-4.076 10.785-3.41 17.004 1.598 7.25 5.655 12.72 11.75 16.875 6.855 2.373 13.236 2.935 20.078.266 5.395-2.834 10.718-7.057 12.77-12.996 1.374-7.326 1.586-14.963-2.336-21.5-3.773-4.918-8.405-7.82-14.262-9.645-10.86-1.333-17.756 1.544-24.59 9.996M1374.715 523.957c6.987 6.023 11.64 11.71 12.594 21.074.365 9.825-1.503 17.294-7.95 24.907-1.7 1.59-3.386 2.828-5.359 4.062l-1.918 1.242c-7.53 4.097-16.852 4.283-24.988 1.91-7.729-3.518-14.03-9.14-17.594-16.902-2.87-8.356-2.566-16.826 1.11-24.863 4.79-8.222 10.786-13.355 19.828-16.137 8.77-.856 16.882-.624 24.277 4.707m-34.637 9.238c-4.684 6.759-5.919 12.626-5.078 20.805 1.768 6.658 5.14 11.376 11 15 6.239 3.166 12.224 3.781 19 2 6.283-2.757 11.135-7.087 14.11-13.328 2.11-6.331 1.746-13.437-.735-19.61-2.768-5.37-6.32-7.894-11.562-10.875-9.658-3.008-19.778-1.938-26.735 6.008M1683 521c4.486 1.121 5.255 1.988 8.188 5.375l2.39 2.746c3.075 3.656 6.086 7.36 9.09 11.074 3.2 3.85 6.572 7.527 9.973 11.2 2.533 2.797 4.943 5.705 7.359 8.605l1-39h7v56c-4.922-1.23-6.63-3.673-9.687-7.437a3019 3019 0 0 0-3.22-3.86l-1.593-1.92c-2.002-2.38-4.087-4.677-6.187-6.97-3.96-4.356-7.683-8.876-11.368-13.465-2.037-2.533-2.037-2.533-4.945-5.348l-1 39h-7z"/><path fill="#142534" d="M1035 288h39v26h-39z"/><path fill="#152534" d="M1540.598 450.367c1.402 1.32 1.402 1.32 3.402 3.633v2c-2.5 1.625-2.5 1.625-5 3l-1.215-1.207c-5.521-5.146-10.796-7.366-18.285-8.168-7.306.783-13.436 2.84-18.5 8.375-3.875 6.893-5.084 13.359-3.598 21.094 1.752 5.952 5.596 9.433 10.598 12.906 5.8 2.964 13.018 2.861 19.313 1.5 4.676-1.559 7.48-3.791 10.687-7.5l6 3c-2.361 5.595-7.325 8.662-12.625 11.313-10.51 3.042-20.015 2.111-29.625-3.063-6.251-5.115-11.097-11.175-12.75-19.25-.877-9.81.583-17.923 6.688-25.812 12.2-12.933 31.72-13.108 44.91-1.82"/><path fill="#152535" d="M1568 444h32v7h-26v16h26v6h-26v21h26v6h-32zM1461 521h6l.06 3.361q.117 6.217.257 12.435.057 2.683.105 5.365c.046 2.582.104 5.164.164 7.745l.035 2.394c.209 8.895.209 8.895 4.004 16.638 4.914 2.198 8.755 2.632 13.75.875 2.776-1.917 3.418-2.765 4.625-5.813.322-2.136.322-2.136.319-4.401l.06-2.608.035-2.788.059-2.875c.06-3.026.106-6.052.152-9.078q.057-3.08.117-6.16.143-7.545.258-15.09h7q.111 8.993.165 17.987.022 3.057.061 6.113c.037 2.937.054 5.873.067 8.81.015.905.03 1.809.047 2.74.002 6.321-.719 11.42-5.094 16.31l-1.809 1.415-1.816 1.46c-4.654 3.343-10.114 2.642-15.621 2.165-5.83-1.493-8.956-4.581-11.979-9.65-1.844-4.245-1.634-8.415-1.51-12.975l.022-2.992c.028-3.129.09-6.255.155-9.383q.037-3.197.068-6.395.084-7.803.244-15.605"/><path fill="#152534" d="M1772.125 520.188c3.163 1.994 5.527 3.894 7.875 6.812.063 2.188.063 2.188-1 4-2.062 1.25-2.062 1.25-4 2l-.687-1.875c-1.776-2.874-3.048-3.327-6.313-4.125-4.342.085-4.342.085-8 2-.501 3.331-.501 3.331 0 7 4.183 4.732 9.233 8.481 14.16 12.402 3.885 3.554 6.364 6.886 7.777 11.973.094 5.434-.93 9.313-4.535 13.465-4.658 4.065-8.739 4.99-14.859 4.61-6.146-1.086-9.585-5.336-13.441-9.864C1748 567 1748 567 1748 565l6-2 1.102 1.496c3.282 4.2 3.282 4.2 7.96 6.567 4.29-.092 6.903-1.028 9.938-4.063.54-4.635.65-6.908-1.75-10.937-3.615-3.824-8.11-6.726-12.41-9.72-3.843-3.17-6.232-6.478-7.777-11.218-.085-4.217.883-7.448 2.937-11.125 5.332-5.198 11.058-6.498 18.125-3.812M1298.074 521.008c3.693 2.462 5.784 4.55 6.926 8.992-3.75 3-3.75 3-6 3l-1.687-2.437c-2.164-2.88-2.164-2.88-5.876-3.438-3.42-.325-3.42-.325-6.437.875-1.293 4.457-1.293 4.457-.047 8.777 3.427 4.152 7.574 7.244 11.86 10.457 4.053 3.272 7.527 6.786 9.187 11.766.345 5.354.5 8.682-3 13-5.335 5.022-8.827 6.466-16.102 6.418-5.57-.803-9.077-4.282-12.617-8.434C1273 568 1273 568 1273 565c3-2 3-2 6-2l1.313 2.313c2.15 3.423 3.9 4.35 7.687 5.687 3.932-.231 5.698-.799 9-3 .974-3.686 1.504-5.965-.195-9.453-1.95-2.753-4.013-4.77-6.555-6.985l-2.672-2.355a237 237 0 0 0-4.719-3.945c-4.767-3.876-6.55-6.426-7.234-12.7.536-5.089 2.635-8.033 6.438-11.375 5.036-3.086 10.774-2.724 16.011-.18"/><path fill="#132331" d="M1359 444h28c1 1 1 1 1.125 3.5C1388 450 1388 450 1387 451c-1.56.157-3.125.25-4.691.316l-2.862.127-3.01.12-3.021.13q-3.708.16-7.416.307l.035 2.773c.01 1.189.018 2.377.027 3.602l.036 3.586C1366 465 1366 465 1365 467h23v6l-22 1v26h-7z"/><path fill="#152535" d="M1410 444h28v7h-22v16h22v6h-22v27h-6z"/><path fill="#152635" d="M1519 521h32v6h-13v50h-7v-50h-12z"/><path fill="#152534" d="M1411 521h7v49h21v7h-28z"/><path fill="#142534" d="M1570 521h7v56h-7z"/><path fill="#12202D" d="M1460 444h6c1 1 1 1 1.12 3.208l-.006 2.954v3.337l-.016 3.63-.005 3.695c-.005 3.913-.018 7.826-.03 11.738q-.008 3.968-.014 7.936-.017 9.75-.049 19.502h-7z"/><path fill="#DA1249" d="M925 438h333v1H925z"/><path fill="#FED900" d="M925 159h333v1H925z"/><path fill="#B10001" d="M1007 587h167l-1 2h-165z"/><path fill="#E34300" d="M1008 9h165l1 2h-167z"/><path d="M1015 209h1v192h-1z"/><path fill="#003636" d="M936 253h26v148h-1V254h-25z"/><path fill="#018080" d="M761 442h162v1H761z"/><path fill="#018101" d="M761 155h162v1H761z"/><path d="M1457 444h2v56h-2z"/><path fill="#010304" d="M1458 521h2v45h-1c-.905-5.382-1.133-10.545-1.098-15.996l.005-2.526c.005-2.639.018-5.277.03-7.915q.008-2.7.014-5.397.017-6.583.049-13.166"/><path fill="#041A2E" d="M1577 265c10.66 15.99 8.157 46.471 4.938 64.5-.303 1.502-.611 3.003-.938 4.5h-1l.208-2.297c.739-8.756 1.068-17.48 1.104-26.265l.012-2.104c.028-10.527-.894-20.453-3.449-30.693C1577 269 1577 269 1577 265"/><path fill="#07152B" d="M1407 275c9.386 16.169 4.894 45.946.452 63.118A250 250 0 0 1 1406 343c-1.486-3.943-.526-7.102.375-11.125 3.432-16.17 3.287-31.948 1.063-48.266-.355-2.928-.53-5.668-.438-8.609"/><path d="M936 207h77v1h-77z"/><path fill="#09182B" d="M1350 270c2.36 3.539 3.134 6.981 4.063 11.063l.534 2.322c2.83 12.656 2.927 24.742 1.028 37.553l-.383 2.822-.39 2.705-.35 2.425C1354 331 1354 331 1352 334l.375-3.437.266-2.497c.268-2.288.576-4.571.906-6.851 2.147-15.236 1.215-28.833-2.707-43.703C1350 274 1350 274 1350 270"/><path fill="#000E48" d="M1419 521h1v47h19v1h-20z"/><path d="M1568 441h32v2h-32z"/><path fill="#000001" d="m1540 528 10 1v1h-9v46h-1z"/><path fill="#000002" d="M1530 528v48h-1v-46h-9v-1l4.438-.5 2.496-.281C1529 528 1529 528 1530 528"/><path fill="#05102E" d="m1526 203 2 2-3.812-.875c-.833-.18-1.666-.36-2.524-.547q-2.545-.551-5.078-1.156c-12.192-2.642-25.273-1.94-37.586-.422 12.628-7.285 33.974-3.715 47 1"/><path fill="#222323" d="M1568 521h1v56h-1z"/><path fill="#000051" d="M1729 521h1v56h-1z"/><path fill="#1F1F3E" d="M1681 521h1v56h-1z"/><path fill="#292A2A" d="M1578 521h1v56h-1z"/><path fill="#000153" d="M1409 521h1v56h-1z"/><path fill="#003D3D" d="M1468 444h1v56h-1z"/><path fill="#000003" d="M1357 444h1v56h-1z"/><path d="M1565 444h1v56h-1zM1407 444h1v56h-1zM1410 441h28v2h-28zM1359 441h28v2h-28z"/><path fill="#0B2329" d="M1528 293h1c.581 17.275-.177 33.58-6 50-1.672-4.095-.256-7.756.875-11.812 2.466-9.055 3.333-17.755 3.688-27.125l.13-3.229q.159-3.917.307-7.834"/><path fill="#001523" d="M1299 281h1l-.219 2.938c-1.069 15.096-.904 29.976.219 45.062h-1c-2.966-15.994-2.966-32.006 0-48"/><path fill="#041130" d="M1350 202c-3.127 1.003-4.982.924-8.125.063-10.532-2.294-22.267-1.94-32.71.597-2.37.372-3.904.078-6.165-.66 15.17-4.728 31.83-4.728 47 0"/><path fill="#000214" d="M1418 452h20v1h-19v11h19v1l-20 1z"/><path fill="#000216" d="M1367 452h20v1h-19v11h19v1l-20 1z"/><path fill="#000051" d="M963 403h51v1h-51z"/><path fill="#000C2C" d="M1471 285h1l-.016 2.7q-.025 5.073-.039 10.148-.008 2.175-.02 4.349c-.06 9.984.272 19.848 1.075 29.803h-1c-1.866-9.166-2.193-18.11-2.187-27.437l-.002-3.41c.036-5.483.218-10.753 1.189-16.153"/><path fill="#03132D" d="M1173 201v1l-1.773-.219c-11.891-1.285-24.365-1.962-36.063.88-2.368.371-3.903.077-6.164-.661 14.252-3.964 29.611-4.837 44-1"/><path fill="#013A3C" d="M1469 521h1l1 46c-2-2-2-2-2.24-3.91l.013-2.356v-2.67l.032-2.884.008-2.951c.011-3.118.037-6.236.062-9.354q.016-3.165.027-6.332.034-7.771.098-15.543"/><path fill="#00012E" d="m1418 474 20 1v1h-19v24h-1zM1367 474l20 1v1h-19v24h-1z"/><path fill="#013032" d="M1499 521h1v43h-1z"/><path d="M933 209h1v43h-1z"/><path fill="#202222" d="m1691 539 3 2-1 2c-.156 2.551-.258 5.08-.316 7.633l-.063 2.278q-.097 3.608-.184 7.214l-.13 4.887q-.161 5.994-.307 11.988h-1z"/><path fill="#003B3F" d="M1489 521h1v42h-1z"/><path fill="#082129" d="M1225 332c4.624 4.624 4.164 12.405 4.25 18.563-.066 5.497-.546 10.22-2.25 15.437-.724-2.527-1.014-3.92-.562-6.562 1.519-9.286.198-18.25-1.438-27.438"/><path fill="#0A141C" d="M1416 288h1v35h-1c-1.157-11.84-1.157-23.16 0-35"/><path fill="#013940" d="M1719 521h1v38l-2-1z"/><path fill="#06212C" d="M1218 240c4.618 6.926 3.635 16.914 3 25-.71 3.286-1.65 5.908-3 9-1-3-1-3-.062-6.312 2.422-8.872 1.304-18.683.062-27.688"/><path fill="#030613" d="m1290 499 1.8.656c10.364 3.482 18.968 3.073 29.2-.656-2.553 3.12-5.144 4-9 5-7.557.722-14.17.415-21-3z"/><path fill="#000050" d="M1036 316h38v1h-38z"/><path fill="#003C3E" d="M1036 286h38v1h-38z"/><path fill="#141E31" d="M1243 291h1l1 36h-1a84 84 0 0 1-1.098-14.027l.01-3.897.025-4.014q.008-2.048.014-4.095.018-4.984.049-9.967"/><path d="M1568 502h32v1h-32z"/><path fill="#03121E" d="m1277 458 1 2-.898 2.137c-1.364 3.544-1.555 6.926-1.727 10.676l-.117 2.1A693 693 0 0 0 1275 480c-3.054-5.62-2.308-10.385-.562-16.375 1.393-4.456 1.393-4.456 2.562-5.625"/><path fill="#12242C" d="M1079 334c1.124 3.37.763 5.571 0 9a91 91 0 0 0-.098 4.863l.01 2.686.025 2.764.014 2.822q.018 3.432.049 6.865c-2.269-4.062-2.298-7.687-2.25-12.25l-.023-2.2c.018-5.148.862-9.6 2.273-14.55"/><path fill="#03131D" d="m1615 576 2.238.656c7.088 1.945 13.425 2.734 20.762 2.344-5.071 2.86-9.954 2.723-15.55 1.395-2.228-.7-4.35-1.373-6.45-2.395z"/><path fill="#03111F" d="m1343 576 2.238.656c7.088 1.945 13.425 2.734 20.762 2.344-5.071 2.86-9.954 2.723-15.55 1.395-2.228-.7-4.35-1.373-6.45-2.395z"/><path fill="#101F25" d="m1337.25 249.5 2.75 1.5c-3 1-3 1-5.062.063-6-2.17-12.781-1.36-18.938-.063 4.986-4.986 15.12-4.163 21.25-1.5"/><path fill="#212124" d="M1411 578h28v1h-28z"/><path fill="#17242A" d="M1086 243h1v26c-1.783-3.565-2.252-4.53-2.23-8.187l.005-2.368.037-2.445.002-2.445c.028-3.707.176-6.968 1.186-10.555"/><path fill="#05121C" d="m1469 577 3.438 1.063c6.032 1.521 11.632.5 17.562-1.063-3.173 3.649-5.588 3.893-10.312 4.25-4.294-.291-6.855-1.372-10.688-3.25z"/><path fill="#000111" d="m1506 501 2.941.496c4.342.62 8.619.615 12.996.567l2.362-.014q2.85-.02 5.701-.049c-3.611 2.264-6.67 2.268-10.875 2.25l-3.617.016c-3.49-.265-6.255-1.012-9.508-2.266z"/><path fill="#00161B" d="M1324 461c3.213 4.819 3.458 9.263 3 15-.523 2.413-1.217 4.652-2 7-.982-3.148-.956-5.499-.5-8.75.546-4.656.27-8.635-.5-13.25"/><path fill="#051019" d="M1246 334h1q.974 3.562 1.938 7.125l.552 2.016c1.06 3.933 1.914 7.829 2.51 11.859-2.563-2.563-3.06-4.794-4.125-8.25l-1.07-3.39c-.782-3.263-.957-6.022-.805-9.36"/><path fill="#003B3E" d="M1033 288h1v26h-1z"/><path d="M1575 475h25v1h-25zM1575 464h25v1h-25zM1575 452h25v1h-25zM1075 289h1v25h-1z"/><path fill="#000017" d="M1488 461c.814 2.852 1.119 5.366 1.098 8.328l-.01 2.422-.025 2.5-.014 2.547q-.02 3.101-.049 6.203c-2.496-3.744-2.26-6.674-2.187-11l.001-2.195c.027-3.188.172-5.762 1.186-8.805"/><path fill="#071E24" d="m1155.125 238.313 2.633.238C1160 239 1160 239 1162 241l-1.906-.254c-5.625-.67-10.506-.677-16.094.254 3.369-3.369 6.55-3.145 11.125-2.687"/><path fill="#000218" d="M1660 540c2.76 4.852 2.69 9.74 1.547 15.14-.465 1.636-1 3.25-1.547 4.86-1.134-3.402-.718-4.57 0-8q.098-3.155.063-6.312l-.028-3.239z"/><path fill="#0B1929" d="M1376 538c3.242 3.242 3.154 6.617 3.188 11.063l.042 2.597C1379 554 1379 554 1377 557l.035-2.379c.049-5.658-.022-11.05-1.035-16.621"/><path fill="#030E17" d="M1188 405a556 556 0 0 1-5.625 2l-3.164 1.125c-3.229.88-5.883 1.035-9.211.875v-1a982 982 0 0 1 7.313-2.062l2.091-.604c5.256-1.447 5.256-1.447 8.596-.334"/><path fill="#0C1D30" d="M1133 336c.837 2.89 1.084 5.373 1 8.375a48.3 48.3 0 0 0 1 10.625c-2.462-2.462-2.956-4.144-3.133-7.594l.008-2.906-.008-2.906C1132 339 1132 339 1133 336"/><path fill="#122231" d="M1489 410h21v1h-21z"/><path fill="#11202F" d="M1316 410h21v1h-21z"/><path fill="#000A1A" d="M1163 364q-2.841.546-5.687 1.063l-3.2.597c-3.025.33-5.193.115-8.113-.66v-1q3.124-.292 6.25-.562l3.516-.317c2.753-.103 4.654.017 7.234.879"/><path fill="#061828" d="M1169 248c3.078 3.078 3.156 5.833 3.188 10l.042 2.625C1172 263 1172 263 1170 266l.035-2.414c.084-7.84.084-7.84-1.035-15.586"/><path d="M1609 541h1v16h-1c-.71-5.53-1.303-10.5 0-16"/><path fill="#102024" d="M1143 410h20v1h-20z"/><path fill="#000004" d="M1145 276h15v1c-5.235.756-9.773 1.206-15 0z"/><path fill="#000A18" d="M1305 554c2.656 1.963 3.033 3.14 3.813 6.438.188 3.581-.121 4.59-1.813 7.562l-.184-2.047-.254-2.703c-.08-.882-.162-1.763-.246-2.672A44 44 0 0 0 1305 554"/><path fill="#012A35" d="M1327 539c1.223 3.67.88 6.34.563 10.188l-.31 3.855L1327 556h-1q-.04-3.687-.062-7.375l-.026-2.117c-.025-5.281-.025-5.281 1.088-7.508"/><path fill="#161A30" d="M1337 541c1.067 3.462 1.102 6.64 1.063 10.25l-.028 3.266L1338 557c-2.173-3.26-2.25-4.23-2.187-8l.019-2.625C1336 544 1336 544 1337 541"/><path fill="#001129" d="m1634 527 3 2h-15c4.772-2.386 6.774-2.332 12-2M1362 527l3 2h-15c4.772-2.386 6.774-2.332 12-2"/><path fill="#121E2F" d="M1172 336c1.814 3.628 2.276 4.777 2.25 8.563l.016 2.316C1174 349 1174 349 1172 352z"/><path fill="#02151A" d="M1773 579c-4.776 2.619-8.844 1.831-14 1 10.463-2.768 10.463-2.768 14-1"/><path fill="#00131D" d="M1282 578q2.376.214 4.75.438c.882.08 1.763.162 2.672.246A44 44 0 0 1 1296 580c-9.41 1.517-9.41 1.517-14-1z"/><path fill="#07132D" d="m1763.066 527.902 2.496.035 2.504.028L1770 528v1l-8 1-1 6h-1q-.062-3.5 0-7c1-1 1-1 3.066-1.098"/><path fill="#10192D" d="M1525 278c3.252 4.878 3.113 9.224 3 15h-1q-.506-2.625-1-5.25l-.562-2.953C1525 282 1525 282 1525 278"/><path fill="#122230" d="M1388 541h1v15h-1z"/><path d="M1512 451h15v1h-15zM1298 451h15v1h-15z"/><path fill="#041023" d="M1476 341c2 2.546 3.826 4.966 5 8l-1 3a418 418 0 0 1-2-3.812l-1.125-2.145C1476 344 1476 344 1476 341"/><path fill="#162231" d="M1494 248c1.77-.054 3.541-.093 5.313-.125l2.988-.07C1505 248 1505 248 1508 250l-14-1z"/><path fill="#07142A" d="m1307 260 1 2c-.777 1.945-.777 1.945-1.937 4.125l-1.153 2.195-.91 1.68c-1-3-1-3-.223-4.824z"/><path fill="#001522" d="M1650 542h1v13h-1z"/><path fill="#071D2E" d="M1750 527c1.047 3.726 1.074 7.13 1 11l-2-2c.023-2.164.023-2.164.375-4.625l.336-2.477z"/><path fill="#001E35" d="M1774 520c3.235 1.617 4.706 2.476 7 5l-1 2z"/><path fill="#151D35" d="M1336 466h1v13h-1z"/><path fill="#000F30" d="M1556 384c0 3 0 3-2 5.188l-2 1.812-2-1z"/><path fill="#032D34" d="M1274 528h1l1 11-2-1z"/><path d="M1460 441h6v2h-6z"/><path fill="#000419" d="M1309 441q2.22.172 4.438.375c.823.07 1.647.14 2.496.21L1318 442l1 2-10-2z"/><path fill="#00001C" d="M1418 330h1l1 11c-2.108-4.216-2.177-6.398-2-11"/><path fill="#000D1E" d="M1522 268c2.296 3.445 2.54 5.938 3 10-2.296-3.445-2.54-5.938-3-10"/><path fill="#03171F" d="M1496 570c0 3 0 3-1.5 4.688L1493 576l-2-1z"/><path fill="#000F1F" d="M1297 546c2.622 1.049 3.794 1.65 5.25 4.125L1303 552a318 318 0 0 1-6-5z"/><path fill="#030716" d="M1286 528h9l1 2-10-1z"/><path fill="#0D272F" d="M1284 467h1v11h-1z"/><path fill="#001A29" d="m1091 385 6 5c-3 0-3 0-4.687-1.375C1091 387 1091 387 1091 385"/><path fill="#091C2A" d="M1397 246c2.9 2.395 3.502 4.312 4 8-2.154-2.622-3.4-4.644-4-8"/><path fill="#00102B" d="M1201 216c2.622 1.049 3.794 1.65 5.25 4.125L1207 222a318 318 0 0 1-6-5z"/><path fill="#0C1931" d="M1173 202c6.75.75 6.75.75 9 3l-9-2z"/><path fill="#00192A" d="M1598 544h1v10h-1z"/><path d="m1439 467 2 1-1 5h-1zM1439 444l2 1-1 5h-1z"/><path fill="#000811" d="M1512.625 440.875 1516 441v1l-9 1c2-2 2-2 5.625-2.125"/><path fill="#000015" d="m1525 408-9 1v-1c3.676-.919 5.164-.959 9 0"/><path fill="#001" d="m1301 407 9 1v1l-9-1z"/><path fill="#003348" d="M1134 253h1v10h-1z"/><path fill="#091E27" d="m1612 561 5 5c-1.937-.812-1.937-.812-4-2z"/><path fill="#041023" d="m1336 525 2 1-5 4c1.875-3.875 1.875-3.875 3-5"/><path fill="#002235" d="M1625 517h9v1h-9zM1353 517h9v1h-9z"/><path d="M1515 493h9v1h-9z"/><path fill="#0A1822" d="m1287 460 1 2c-.937 2.625-.937 2.625-2 5-.625-1.812-.625-1.812-1-4z"/><path fill="#001720" d="M1342 354v3l-4 2z"/><path fill="#002C35" d="M1148 322h9v1h-9z"/><path fill="#0D1935" d="m1137 269 5 5c-1.937-.812-1.937-.812-4-2z"/><path fill="#000E21" d="M1420 266c.93 2.606 1.15 3.642.063 6.25L1419 274z"/><path fill="#07152C" d="M1571 248c1.563 1.813 1.563 1.813 3 4l-1 3c-1.46-2.647-2-3.894-2-7"/><path fill="#0C1616" d="m1448 218 2 1-5 4c1.875-3.875 1.875-3.875 3-5"/><path fill="#B70000" d="m996 568 3 4-1 2c-2-3-2-3-2-6"/><path fill="#091523" d="m1620 568 7 1v1l-7-1z"/><path fill="#001621" d="m1600 559 3 4-1 2c-2-3-2-3-2-6"/><path fill="#091822" d="m1697 546 4 3-1 2c-1.5-1.375-1.5-1.375-3-3z"/><path fill="#0B0B28" d="m1647 536 3 3-1 3z"/><path fill="#000015" d="M1600 536c1 3 1 3 .063 5.188L1599 543z"/><path fill="#052929" d="m1534 499 2 1-3 2-3-1c1.875-1.062 1.875-1.062 4-2"/><path fill="#A20000" d="m953 494 3 4-1 2c-2-3-2-3-2-6"/><path fill="#001333" d="m1293 442 3 1-6 2z"/><path fill="#082125" d="m1572 358 1 3-3 3z"/><path fill="#1AC77D" d="m712 359 3 4-1 2c-2-3-2-3-2-6"/><path fill="#001933" d="M1420 341c2 3 2 3 1.625 5.188L1421 348z"/><path fill="#001010" d="M1351 334c.625 1.813.625 1.813 1 4l-2 3z"/><path fill="#00081D" d="m1084 323 1 2-3 4c.875-4.875.875-4.875 2-6M1197 302c2.438.375 2.438.375 5 1l1 2-6-2z"/><path fill="#091B26" d="M1244 283h1v8h-1z"/><path fill="#087D42" d="m714 233 1 2-3 4c.875-4.875.875-4.875 2-6"/><path fill="#001818" d="m1463 207 3 1-6 2z"/><path fill="#FFEC00" d="m955 98 1 2-3 4c.875-4.875.875-4.875 2-6"/><path fill="#FFC100" d="m998 24 1 2-3 4c.875-4.875.875-4.875 2-6"/><path fill="#191925" d="M1683 578h7v1h-7z"/><path fill="#1A2323" d="M1570 578h7v1h-7z"/><path fill="#1B2424" d="M1531 578h7v1h-7z"/><path fill="#16163F" d="M1440 570h1v7h-1z"/><path fill="#001B33" d="m1341 562 4 4-4-2z"/><path fill="#FF1B67" d="m1204 535 1 2-3 3z"/><path fill="#052734" d="m1643 532 4 2-1 2z"/><path fill="#A80000" d="m971 526 3 3-1 2z"/><path fill="#001931" d="M1762 517h7v1h-7z"/><path fill="#001212" d="m1495 492 4 4-4-2z"/><path d="M1302 493h7v1h-7z"/><path fill="#002020" d="m1281 491 4 4-4-2z"/><path fill="#062740" d="m1504 455 2 1-4 3z"/><path fill="#091835" d="m1533 455 4 2-1 2z"/><path fill="#229FB9" d="m917 424 3 3-1 2z"/><path fill="#22DD7E" d="m747 420 3 3-1 2z"/><path fill="#25ADBE" d="m909 410 3 3-1 2z"/><path fill="#000915" d="m1471 406 6 1c-1.875.625-1.875.625-4 1z"/><path fill="#00091B" d="m1352 406 3 1-6 1z"/><path fill="#00243C" d="M1496 362h7v1h-7zM1323 362h7v1h-7z"/><path fill="#091A1E" d="m1301 334 2 3-1 3z"/><path fill="#22B26C" d="m687 317 3 3-1 2z"/><path fill="#09172D" d="m1109 298 4 1v2l-4-2z"/><path fill="#002020" d="M1417 281h1v7h-1z"/><path fill="#156C4A" d="m689 276 1 2-3 3z"/><path fill="#0E151E" d="m1475 269 1 3-2 3z"/><path fill="#0A2B30" d="m1422 260 1 3-2 3z"/><path fill="#000915" d="m1401 254 2 2c-.375 2.125-.375 2.125-1 4z"/><path fill="#081F34" d="m1088 237 1 3-2 3z"/><path fill="#19BE25" d="m911 183 1 2-3 3z"/><path fill="#157E37" d="m749 173 1 2-3 3z"/><path fill="#22C122" d="m919 169 1 2-3 3z"/><path fill="#F7BF00" d="m973 67 1 2-3 3z"/><path fill="gold" d="m1202 58 3 3-1 2z"/><path fill="#001A28" d="m1748 569 3 2-1 2z"/><path fill="#090D1B" d="m1769 568 2 1-5 1z"/><path fill="#000824" d="m1711 562 3 2-1 2z"/><path d="M1772 560h1v6h-1z"/><path fill="#001D33" d="m1704 554 3 2-1 2z"/><path fill="#061927" d="m1289 552 4 2h-3z"/><path fill="#0D1726" d="m1698 533 3 2-1 2z"/><path fill="#000E2A" d="m1381 528 3 2-1 2z"/><path fill="#00132F" d="m1692 526 3 2-1 2z"/><path fill="#000038" d="M1552 521h1v6h-1z"/><path fill="#1B2338" d="M1517 521h1v6h-1z"/><path fill="#06192D" d="m1647 523 4 2h-3z"/><path fill="#050C20" d="m1375 523 4 2h-3z"/><path fill="#00000E" d="m1639 519 5 1-2 1zM1367 519l5 1-2 1z"/><path fill="#002C2C" d="M1287 517h6v1h-6z"/><path d="M1460 502h6v1h-6zM1410 502h6v1h-6zM1359 502h6v1h-6z"/><path fill="#000031" d="M1601 494h1v6h-1z"/><path fill="#000047" d="M1601 467h1v6h-1z"/><path d="M1497 469h1v6h-1z"/><path fill="#000038" d="M1389 467h1v6h-1zM1389 444h1v6h-1z"/><path d="M1523 441h6v1h-6zM1296 441h6v1h-6z"/><path fill="#001B3F" d="M1510 409h6v1h-6z"/><path fill="#001B29" d="M1483 409h6v1h-6z"/><path fill="#001927" d="M1337 409h6v1h-6z"/><path fill="#001B38" d="M1310 409h6v1h-6z"/><path fill="#001935" d="M1163 409h6v1h-6z"/><path fill="#002424" d="M1137 409h6v1h-6z"/><path fill="#00001C" d="M1130 408h6v1h-6z"/><path fill="#071C2A" d="m1527 405 3 1-5 1z"/><path fill="#07112E" d="m1296 405 5 1-3 1z"/><path fill="#051F33" d="m1118 404 5 1-3 1z"/><path fill="#050D36" d="m1375 392 2 1-4 2z"/><path fill="#00082C" d="m1273 389 4 2h-3z"/><path fill="#06101E" d="m1270 385 3 2-1 2z"/><path fill="#060D29" d="m1439 381 3 2-1 2z"/><path fill="#0D1414" d="m1252 355 2 2-1 3z"/><path fill="#111923" d="m1484 356 4 2h-3z"/><path fill="#07112E" d="m1401 354 1 3-2 2z"/><path fill="#000824" d="m1574 353 1 3-2 2z"/><path fill="#111C35" d="m1423 351 2 2-1 3z"/><path fill="#000A20" d="m1135 331 1 3-2 2z"/><path fill="#002020" d="M1245 327h1v6h-1z"/><path fill="#001935" d="M1417 323h1v6h-1z"/><path fill="#071120" d="M1209 286v3l-2 1z"/><path fill="#00001C" d="M1472 279h1v6h-1z"/><path fill="#00000E" d="M1418 274h1v6h-1z"/><path d="M1246 271h1v6h-1z"/><path fill="#111C27" d="m1252 253 1 3-2 2z"/><path fill="#101030" d="m1216 235 2 2-1 3z"/><path fill="#001B29" d="M1439 228v3l-2 1z"/><path fill="#0C2424" d="M1268 226v3l-2 1z"/><path fill="#131313" d="m1470 204 3 1-5 1z"/><path fill="#101B26" d="m1300 203 3 1-5 1z"/><path fill="#E50C5D" d="m1178 579 1 3-2 1z"/><path fill="#08123D" d="M1632 569h5v1h-5z"/><path fill="#081223" d="M1360 569h5v1h-5zM1350 569h5v1h-5z"/><path fill="#071144" d="M1487 566v3l-2-1z"/><path fill="#001" d="m1746 565 2 4-2-1z"/><path fill="#002323" d="m1279 543 3 3-3-1z"/><path fill="#800" d="m979 539 2 4-2-1z"/><path fill="#072D2D" d="m1761 536 3 3-3-1z"/><path fill="#0C0C2A" d="m1339 537 1 2-2 2z"/><path fill="#0C1533" d="m1329 535 1 2-2 2z"/><path fill="#001" d="m1384 532 2 1-1 3z"/><path fill="#003445" d="m1371 532 3 1-1 2z"/><path fill="#152A2A" d="M1284 530h1v5h-1z"/><path fill="#001919" d="m1305 526 2 1-1 3z"/><path d="m1281 519 3 1-4 1z"/><path fill="#FF2290" d="m1221 505 1 3-2 1z"/><path fill="#071425" d="m1544 452 2 1-1 3z"/><path fill="#11BB6E" d="m755 433 2 4-2-1z"/><path fill="#002" d="M1477 408h5v1h-5zM1344 408h5v1h-5z"/><path fill="#001" d="m1106 398 4 2-4-1z"/><path fill="#001919" d="M1212 387v3l-2-1z"/><path fill="#0C191F" d="m1488 359 4 2-4-1z"/><path fill="#0B1823" d="m1336 359 2 1-4 1z"/><path fill="#081223" d="m1171 352 1 3-2 1z"/><path fill="#001D3F" d="m1306 347 2 1-1 3z"/><path fill="#26BFD8" d="m867 337 2 1-1 3z"/><path fill="#1F8" d="m695 330 2 4-2-1z"/><path fill="#00193B" d="M1245 278h1v5h-1z"/><path fill="#087" d="m696 264 1 2-2 2z"/><path fill="#071122" d="m1478 263 1 2-2 2z"/><path fill="#0C0C1A" d="m1346 260 2 1-1 3z"/><path fill="#0CD826" d="m868 257 1 3-2 1z"/><path fill="#000A1B" d="m1513 253 3 1-1 2z"/><path fill="#000C0C" d="m1256 244 1 2-2 2z"/><path fill="#001728" d="m1139 243 2 1-3 2z"/><path fill="#001" d="m1565 237 2 1-1 3zM1092 229l1 2-2 2zM1360 207l4 1-2 1z"/><path fill="#006E5D" d="m756 161 1 2-2 2z"/><path fill="#FB0" d="m1220 89 2 1-1 3z"/><path fill="#CCA100" d="m980 55 1 2-2 2z"/><path fill="#E5C700" d="m1177 15 2 1-1 3z"/><path fill="#D00000" d="m1002 579 2 1-1 2z"/><path fill="#08121A" d="m1372 575 2 1h-3z"/><path fill="#0A0A20" d="m1300 575 2 1h-3z"/><path fill="#081820" d="m1466 575 3 1h-3z"/><path fill="#EF279E" d="M1183 571v3Z"/><path fill="#001010" d="m1719 571 2 1-1 2z"/><path fill="#000C0C" d="m1609 572 3 1h-3z"/><path fill="#0A172C" d="M1305 570v3Z"/><path fill="#00002A" d="m1478 570 4 1Z"/><path fill="#000015" d="m1782 565 1 4Z"/><path fill="#061C22" d="m1471 567 3 1h-3z"/><path fill="#091534" d="m1604 566 2 1-1 2z"/><path fill="#001010" d="m1498 564 1 4Z"/><path fill="#001025" d="m1332 566 2 1-1 2z"/><path fill="#FF22B0" d="M1186 566v3Z"/><path fill="#091919" d="M1655 565v3Z"/><path fill="#08222A" d="m1642 565 2 1h-3z"/><path fill="#00103A" d="M1384 564v3Z"/><path fill="#112129" d="m1370 565 2 1h-3z"/><path fill="#C40000" d="m992 562 2 1-1 2z"/><path fill="#00204A" d="m1297 561 1 4Z"/><path fill="#112129" d="M1647 560v3Z"/><path fill="#BA0000" d="m989 557 2 1-1 2z"/><path fill="#000015" d="m1782 557 1 4ZM1599 555l1 4Z"/><path fill="#111119" d="m1295 557 2 1-1 2z"/><path fill="#F81768" d="M1191 557v3Z"/><path fill="#F22094" d="M1193 554v3Z"/><path fill="#092932" d="m1762 550 3 1h-3z"/><path fill="#B70000" d="m984 548 2 1-1 2z"/><path fill="#002020" d="m1711 548 2 1-1 2z"/><path fill="#081835" d="m1284 548 3 1h-3z"/><path fill="#000A20" d="m1757 546 3 1h-3z"/><path fill="#CA0000" d="m982 545 2 1-1 2z"/><path fill="#08242C" d="m1766 541 3 1h-3z"/><path fill="#000C22" d="m1704 540 2 1-1 2z"/><path fill="#F71179" d="M1201 540v3Z"/><path fill="#082830" d="m1288 539 3 1h-3z"/><path fill="#061319" d="M1612 535v3Z"/><path fill="#001A1A" d="m1776 533 2 1h-3z"/><path fill="#082129" d="m1656 532 2 1-1 2z"/><path fill="#9F0000" d="m974 531 2 1-1 2z"/><path fill="#082830" d="m1303 531 2 1h-3z"/><path fill="#000A0A" d="m1653 528 2 1-1 2z"/><path fill="#081820" d="M1752 524v3Z"/><path fill="#FF2CB0" d="M1211 523v3Z"/><path fill="#000A20" d="M1278 522v3Z"/><path fill="#002C2C" d="m1613 521 2 1h-3z"/><path fill="#00172C" d="m1341 521 2 1h-3z"/><path fill="#00103A" d="m1635 518 4 1Z"/><path fill="#001025" d="m1620 518 4 1ZM1363 518l4 1ZM1348 518l4 1Z"/><path fill="#F83057" d="M1216 514v3Z"/><path fill="#C40000" d="m964 514 2 1-1 2z"/><path fill="#E91359" d="M1219 509v3Z"/><path fill="#D40000" d="m956 500 2 1-1 2z"/><path fill="#111119" d="m1503 499 3 1h-3z"/><path fill="#F41D60" d="M1226 497v3Z"/><path fill="#07272E" d="m1537 497 2 1h-3z"/><path fill="#081835" d="m1322 497 2 1h-3z"/><path fill="#08141C" d="m1287 497 3 1h-3z"/><path fill="#FF1CA6" d="M1229 492v3Z"/><path fill="#001010" d="m1525 492 4 1ZM1510 492l4 1ZM1310 492l4 1Z"/><path fill="#001025" d="m1297 492 4 1Z"/><path fill="#111E24" d="m1532 489 2 1h-3z"/><path fill="#101037" d="m1505 489 3 1h-3z"/><path fill="#0F1F25" d="m1317 489 2 1h-3z"/><path fill="#082129" d="m1491 487 2 1-1 2z"/><path fill="#002020" d="M1332 487v3Z"/><path fill="#001025" d="m1540 485 3 1h-3z"/><path fill="#132323" d="m1287 483 2 1-1 2z"/><path fill="#101017" d="m1500 483 2 1-1 2z"/><path fill="#FF1788" d="M1234 483v3Z"/><path fill="#D90000" d="m946 483 2 1-1 2z"/><path fill="#F62061" d="M1236 480v3Z"/><path fill="#001010" d="m1498 476 1 4Z"/><path fill="#D40000" d="m941 474 2 1-1 2z"/><path fill="#DF2184" d="M1244 466v3Z"/><path fill="#00002A" d="m1498 464 1 4Z"/><path fill="#001C1C" d="m1335 462 1 4Z"/><path fill="#FF10BF" d="M1247 461v3Z"/><path fill="#09091E" d="m1322 458 2 1-1 2z"/><path fill="#09252F" d="M1289 457v3Z"/><path fill="#BA0000" d="m931 457 2 1-1 2z"/><path fill="#00152A" d="m1542 457 2 1h-3z"/><path fill="#002035" d="m1331 454 2 1-1 2z"/><path fill="#09151F" d="M1493 453v3Z"/><path fill="#061E24" d="m1317 454 3 1h-3z"/><path fill="#E91055" d="M1252 452v3Z"/><path fill="#D90000" d="m928 452 2 1-1 2z"/><path fill="#F427A6" d="M1254 449v3Z"/><path fill="#000A0A" d="m1538 447 3 1h-3z"/><path fill="#091515" d="m1500 446 2 1h-3z"/><path fill="#08242C" d="m1288 445 2 1h-3z"/><path fill="#092323" d="m1534 444 3 1h-3z"/><path fill="#B70707" d="m923 443 2 1-1 2z"/><path fill="#EF207F" d="M1259 440v3Z"/><path fill="#2EA2BA" d="m923 435 2 1-1 2z"/><path fill="#2ED896" d="m750 425 2 1-1 2z"/><path fill="#37A7D8" d="m915 421 2 1-1 2zM907 407l2 1-1 2z"/><path fill="#15F495" d="m740 408 2 1-1 2z"/><path d="m1126 407 4 1Z"/><path fill="#08141C" d="m1535 401 2 1h-3z"/><path fill="#071119" d="m1289 401 3 1h-3z"/><path fill="#001025" d="m1369 397 2 1h-3z"/><path fill="#002035" d="m1543 396 2 1h-3z"/><path fill="#002020" d="m1455 397 3 1h-3z"/><path fill="#002C2C" d="m1201 396 2 1h-3z"/><path fill="#001C1C" d="m1281 396 3 1h-3z"/><path fill="#001A1A" d="m1103 396 3 1h-3z"/><path fill="#44BAED" d="m899 393 2 1-1 2z"/><path fill="#121230" d="m1100 394 3 1h-3z"/><path fill="#0A1A30" d="m1450 393 3 1h-3z"/><path fill="#25FFBA" d="m730 391 2 1-1 2z"/><path fill="#17CF8F" d="m725 382 2 1-1 2z"/><path fill="#001025" d="M1385 382v3Z"/><path fill="#0A1A3A" d="M1218 380v3Z"/><path fill="#09152B" d="m1086 379 2 1-1 2z"/><path fill="#22DD7B" d="m723 379 2 1-1 2z"/><path fill="#00103A" d="m1264 378 2 1-1 2z"/><path fill="#1D98EB" d="m891 379 2 1-1 2z"/><path fill="#002020" d="m1436 377 2 1-1 2z"/><path fill="#092525" d="M1563 375v3Z"/><path fill="#00002A" d="M1221 376v3Z"/><path fill="#2984AD" d="m888 374 2 1-1 2z"/><path fill="#07232B" d="m1432 371 2 1-1 2z"/><path fill="#091313" d="m1257 367 2 1-1 2z"/><path fill="#091515" d="m1429 366 2 1-1 2z"/><path fill="#1A9AD4" d="m883 365 2 1-1 2z"/><path fill="#30ED9C" d="m715 365 2 1-1 2z"/><path fill="#111E25" d="m1079 363 1 4Z"/><path fill="#29C4E6" d="m880 360 2 1-1 2z"/><path fill="#002727" d="M1516 352v3Z"/><path fill="#08083A" d="m1482 353 2 1-1 2z"/><path fill="#22B0D2" d="m875 351 2 1-1 2z"/><path d="m1575 349 1 4Z"/><path fill="#00002A" d="m1403 347 1 4Z"/><path fill="#37E7C5" d="m705 348 2 1-1 2z"/><path fill="#30C7E7" d="m872 346 2 1-1 2z"/><path fill="#000C22" d="m1576 345 1 4Z"/><path fill="#001A1A" d="m1404 343 1 4Z"/><path fill="#19EDAD" d="m700 339 2 1-1 2z"/><path fill="#101C39" d="m1578 338 1 4Z"/><path fill="#1A2A32" d="m1579 334 1 4Z"/><path fill="#001A1A" d="m1473 332 1 4Z"/><path fill="#001025" d="m1300 330 1 4Z"/><path fill="#32C4EE" d="m864 332 2 1-1 2z"/><path fill="#0F1F2E" d="m1163 325 3 1h-3z"/><path fill="#2ECE96" d="m690 322 2 1-1 2z"/><path fill="#09152B" d="m1157 323 4 1Z"/><path fill="#003232" d="m1219 320 2 1-1 2z"/><path fill="#001515" d="M1086 320v3Z"/><path fill="#2DC7DB" d="m856 318 2 1-1 2z"/><path fill="#091922" d="M1089 316v3Z"/><path fill="#000A35" d="m1214 314 2 1-1 2z"/><path fill="#000C22" d="m1209 310 3 1h-3zM1096 309l2 1h-3z"/><path fill="#29CB99" d="m680 305 2 1-1 2z"/><path fill="#092525" d="m1101 305 2 1h-3z"/><path fill="#25C4DA" d="m848 304 2 1-1 2z"/><path fill="#091329" d="m1203 305 3 1h-3z"/><path fill="#001025" d="m1104 303 2 1h-3z"/><path fill="#39D28C" d="m845 297 1 4Z"/><path fill="#009F7F" d="m677 297 1 4Z"/><path fill="#002020" d="m1202 293 2 1h-3z"/><path fill="#27E427" d="M849 291v3Z"/><path fill="#13995C" d="M681 290v3Z"/><path fill="#09192E" d="m1095 285 2 1-1 2z"/><path fill="#001025" d="m1092 281 2 1-1 2z"/><path fill="#23E637" d="M857 277v3Z"/><path fill="#00103A" d="m1300 276 1 4Z"/><path fill="#119668" d="M691 273v3Z"/><path fill="#101A37" d="m1406 271 1 4Z"/><path fill="#082129" d="m1405 267 1 4Z"/><path fill="#000015" d="m1349 266 1 4Z"/><path fill="#00002A" d="m1247 267 1 4Z"/><path fill="#21EE32" d="M865 263v3Z"/><path d="m1135 263 1 4Z"/><path fill="#000015" d="m1403 260 1 4Z"/><path fill="#000020" d="m1575 258 1 4Z"/><path fill="#11AD4A" d="M701 256v3Z"/><path fill="#0A152A" d="m1342 254 2 1-1 2z"/><path fill="#20E730" d="M873 249v3Z"/><path d="m1135 249 1 4Z"/><path fill="#17A68E" d="M706 247v3Z"/><path fill="#22D222" d="M876 244v3Z"/><path fill="#08121A" d="m1568 243 2 1-1 2z"/><path fill="#002727" d="m1162 241 3 1h-3z"/><path fill="#111119" d="M1431 240v3Z"/><path fill="#21ED29" d="M881 235v3Z"/><path fill="#002727" d="m1563 234 2 1-1 2z"/><path fill="#001717" d="m1391 235 2 1-1 2z"/><path fill="#081230" d="m1389 232 2 1-1 2z"/><path fill="#1AD43A" d="M884 230v3Z"/><path fill="#08083A" d="m1560 230 2 1-1 2z"/><path fill="#129C6B" d="M716 230v3Z"/><path fill="#00253A" d="m1211 226 2 1-1 2z"/><path fill="#001919" d="M1094 226v3Z"/><path fill="#002020" d="m1556 225 2 1-1 2z"/><path fill="#21AD29" d="M889 221v3Z"/><path fill="#0A0A20" d="M1098 221v3Z"/><path fill="#227B44" d="M724 216v3Z"/><path fill="#13EB1D" d="M892 216v3Z"/><path fill="#002020" d="m1546 216 3 1h-3z"/><path fill="#108F70" d="M726 213v3Z"/><path fill="#08083A" d="m1541 212 3 1h-3z"/><path fill="#08141C" d="m1367 211 3 1h-3z"/><path fill="#002929" d="m1287 209 2 1h-3z"/><path fill="#121227" d="m1193 210 3 1h-3z"/><path fill="#002626" d="m1112 209 2 1h-3z"/><path fill="#002727" d="m1537 209 3 1h-3z"/><path fill="#001C1C" d="m1190 208 3 1h-3z"/><path fill="#10BA55" d="M731 204v3Z"/><path fill="#12ED44" d="M900 202v3Z"/><path fill="#11D837" d="M908 188v3Z"/><path fill="#15956A" d="M741 187v3Z"/><path fill="#11D837" d="M916 174v3Z"/><path fill="#119668" d="M751 170v3Z"/><path fill="#09BA35" d="M924 160v3Z"/><path fill="#EFDF00" d="m1258 155 2 1-1 2z"/><path fill="#F8E700" d="M924 152v3Z"/><path fill="#F4CD00" d="m1253 146 2 1-1 2z"/><path fill="#E18A00" d="m1251 143 2 1-1 2z"/><path fill="#FFD900" d="M929 143v3Z"/><path fill="#E9D800" d="M932 138v3Z"/><path fill="#FFEF00" d="m1246 134 2 1-1 2z"/><path fill="#DFAD00" d="m1243 129 2 1-1 2z"/><path fill="#FFD100" d="M942 121v3Z"/><path fill="#F69500" d="m1235 115 2 1-1 2z"/><path fill="#FFBE00" d="m1233 112 2 1-1 2z"/><path fill="#F4E900" d="M947 112v3Z"/><path fill="#FFC200" d="m1228 103 2 1-1 2z"/><path fill="#F49700" d="m1225 98 2 1-1 2z"/><path fill="#D7C600" d="M957 95v3Z"/><path fill="#E9D600" d="m1218 86 2 1-1 2z"/><path fill="#FFDA00" d="M965 81v3Z"/><path fill="#F88F00" d="m1215 81 2 1-1 2z"/><path fill="#FFC700" d="m1210 72 2 1-1 2z"/><path fill="#FFC600" d="M975 64v3Z"/><path fill="#F7B100" d="m1200 55 2 1-1 2z"/><path fill="#FFDE00" d="M983 50v3Z"/><path fill="#FFBE00" d="M985 47v3Z"/><path fill="#E9C800" d="m1192 41 2 1-1 2z"/><path fill="#F4BA00" d="M990 38v3Z"/><path fill="#F8E700" d="m1190 38 2 1-1 2z"/><path fill="#FFE600" d="M993 33v3Z"/><path fill="#DFD200" d="m1185 29 2 1-1 2z"/><path fill="#EFCE00" d="m1182 24 2 1-1 2z"/><path fill="#F8E400" d="M1003 16v3Z"/><path fill="#0C213D" d="m1638 578 3 1Z"/><path fill="#0C1D39" d="m1366 578 3 1Z"/><path d="m1628 570 3 1ZM1356 570l3 1Z"/><path fill="#0C1D1D" d="m1482 569 3 1Z"/><path fill="#001F1F" d="m1474 569 3 1Z"/><path fill="#0A1B26" d="m1291 569 3 1Z"/><path fill="#0C1D1D" d="m1285 569 3 1Z"/><path fill="#0C3232" d="m1295 567 1 2-2-1z"/><path fill="#001515" d="m1276 561 3 1Z"/><path fill="#000038" d="M1768 555h2l-1 2z"/><path fill="#00001C" d="m1637 529 3 1ZM1619 529l3 1ZM1365 529l3 1Z"/><path fill="#001C1C" d="m1347 529 3 1Z"/><path d="m1617 519 3 1ZM1345 519l3 1Z"/><path fill="#000038" d="m1769 518 3 1ZM1759 518l3 1Z"/><path fill="#001515" d="m1284 518 3 1Z"/><path fill="#001531" d="m1543 492 1 2-2-1z"/><path fill="#011" d="m1295 452 3 1Z"/><path fill="#022" d="m1282 450 2 1-2 1z"/><path fill="#001515" d="m1529 442 3 1Z"/><path fill="#0C9E85" d="m758 439 2 2h-2z"/><path fill="#002A2A" d="m1123 406 3 1Z"/><path fill="#00001C" d="m1143 363 3 1Z"/><path fill="#001F3B" d="m1504 361 3 1Z"/><path fill="#0E2323" d="m1492 361 3 1Z"/><path fill="#0C1D1D" d="m1331 361 3 1Z"/><path fill="#001F1F" d="m1319 361 3 1Z"/><path fill="#022" d="m1311 355 2 2h-2z"/><path fill="#0E1C1C" d="m1145 323 3 1Z"/><path fill="#022" d="m1166 271 1 2-2-1z"/><path fill="#003131" d="m1484 253 2 1-2 1z"/><path fill="#001F1F" d="m1491 249 3 1Z"/><path d="m1187 207 3 1ZM1116 207l3 1Z"/><path fill="#000E2A" d="m1355 205 3 1ZM1121 205l3 1Z"/><path fill="#0A2E39" d="m1473 203 3 1Z"/><path fill="#16163D" d="m1350 203 3 1Z"/><path fill="#161621" d="m1126 203 3 1Z"/><path fill="#162732" d="m1476 202 3 1Z"/><path fill="#0C8524" d="m758 157 2 1-2 1z"/><path fill="#12123C" d="m1757 578 2 1Z"/><path fill="#122B2B" d="m1725 578 2 1Z"/><path fill="#153535" d="m1296 578 2 1Z"/><path fill="#003535" d="m1773 577 2 1Z"/><path fill="#103040" d="m1641 577 2 1ZM1369 577l2 1Z"/><path fill="#153535" d="m1280 577 2 1Z"/><path fill="#151515" d="m1754 576 2 1Z"/><path fill="#0E0E1C" d="m1643 576 2 1Z"/><path fill="#12123C" d="m1613 575 2 1Z"/><path fill="#151540" d="m1341 575 2 1Z"/><path fill="#00002A" d="m1647 573 2 1Z"/><path d="m1375 573 2 1Z"/><path fill="#00002A" d="m1337 572 2 1Z"/><path d="m1764 570 2 1ZM1288 570l2 1Z"/><path fill="#101020" d="m1761 569 2 1Z"/><path fill="#0D0D44" d="m1759 568 2 1Z"/><path fill="#0E2736" d="m1637 568 2 1Z"/><path fill="#102939" d="m1365 568 2 1ZM1348 568l2 1Z"/><path fill="#0E3847" d="m1639 567 2 1Z"/><path fill="#122727" d="m1618 567 2 1Z"/><path fill="#0E2E3C" d="m1367 567 2 1Z"/><path fill="#0E2736" d="m1346 567 2 1Z"/><path d="m1748 563 2 1Z"/><path fill="#00002A" d="m1274 562 2 1Z"/><path fill="#00006A" d="m1752 561 2 1Z"/><path d="m1771 545 2 1Z"/><path fill="#151515" d="m1293 543 2 1Z"/><path fill="#001944" d="m1299 534 2 1Z"/><path fill="#001515" d="m1640 530 2 1Z"/><path fill="#005" d="m1617 530 2 1Z"/><path fill="#121212" d="m1368 530 2 1Z"/><path fill="#001919" d="m1345 530 2 1Z"/><path fill="#004A4A" d="m1644 521 2 1Z"/><path fill="#00204A" d="m1372 521 2 1Z"/><path fill="#00002A" d="m1615 520 2 1Z"/><path fill="#005" d="m1343 520 2 1Z"/><path d="m1772 519 2 1ZM1757 519l2 1ZM1297 519l2 1Z"/><path fill="#002020" d="m1294 518 2 1Z"/><path fill="#153535" d="m1501 498 2 1ZM1529 491l2 1Z"/><path fill="#003939" d="m1508 491 2 1Z"/><path fill="#003535" d="m1314 491 2 1Z"/><path fill="#10104A" d="m1295 491 2 1Z"/><path fill="#122B2B" d="m1293 490 2 1Z"/><path d="m1538 484 2 1ZM1538 460l2 1Z"/><path fill="#123232" d="m1292 454 2 1ZM1530 453l2 1Z"/><path fill="#003939" d="m1507 453 2 1Z"/><path fill="#101020" d="m1315 453 2 1Z"/><path fill="#001944" d="m1528 452 2 1Z"/><path fill="#00204A" d="m1509 452 2 1Z"/><path fill="#001919" d="m1313 452 2 1Z"/><path fill="#151540" d="m1322 446 2 1Z"/><path fill="#153535" d="m1503 444 2 1Z"/><path fill="#033" d="m1319 444 2 1Z"/><path fill="#001944" d="m1532 443 2 1Z"/><path fill="#003939" d="m1505 443 2 1Z"/><path fill="#002F2F" d="m1469 405 2 1ZM1355 405l2 1Z"/><path fill="#103040" d="m1530 404 2 1Z"/><path fill="#152B2B" d="m1467 404 2 1Z"/><path fill="#2B2B2B" d="m1357 404 2 1Z"/><path fill="#103040" d="m1294 404 2 1Z"/><path fill="#0E0E47" d="m1532 403 2 1Z"/><path fill="#122727" d="m1465 403 2 1Z"/><path fill="#272727" d="m1359 403 2 1Z"/><path fill="#0E0E47" d="m1292 403 2 1Z"/><path fill="#0E2E3C" d="m1188 403 2 1Z"/><path fill="#102535" d="m1116 403 2 1Z"/><path fill="#122B3E" d="m1463 402 2 1Z"/><path fill="#103040" d="m1361 402 2 1Z"/><path fill="#102939" d="m1190 402 2 1Z"/><path fill="#272727" d="m1114 402 2 1Z"/><path fill="#121212" d="m1461 401 2 1Z"/><path fill="#121224" d="m1363 401 2 1Z"/><path fill="#123232" d="m1192 401 2 1Z"/><path fill="#033" d="m1112 401 2 1Z"/><path fill="#001919" d="m1537 400 2 1Z"/><path fill="#002020" d="m1287 400 2 1Z"/><path fill="#001919" d="m1194 400 2 1Z"/><path fill="#005" d="m1110 400 2 1Z"/><path fill="#002020" d="m1539 399 2 1Z"/><path d="m1458 399 2 1Z"/><path fill="#00002A" d="m1366 399 2 1Z"/><path fill="#002020" d="m1285 399 2 1Z"/><path fill="#00002A" d="m1196 399 2 1Z"/><path d="m1198 398 2 1Z"/><path fill="#001919" d="m1205 393 2 1Z"/><path fill="#001944" d="m1163 362 2 1Z"/><path fill="#151515" d="m1141 362 2 1Z"/><path fill="#0E2E3C" d="m1507 360 2 1Z"/><path fill="#0E0E47" d="m1317 360 2 1Z"/><path fill="#0E2E3C" d="m1509 359 2 1ZM1315 359l2 1Z"/><path fill="#102939" d="m1141 325 2 1Z"/><path fill="#102535" d="m1161 324 2 1Z"/><path fill="#0E2E3C" d="m1143 324 2 1Z"/><path d="m1106 302 2 1Z"/><path fill="#00204A" d="m1195 301 2 1ZM1109 301l2 1Z"/><path fill="#103040" d="m1195 298 2 1Z"/><path fill="#121212" d="m1107 297 2 1Z"/><path fill="#002020" d="m1198 296 2 1Z"/><path fill="#00002A" d="m1103 294 2 1Z"/><path fill="#00204A" d="m1161 275 2 1Z"/><path fill="#001944" d="m1143 275 2 1Z"/><path fill="#002020" d="m1510 251 2 1Z"/><path fill="#001919" d="m1487 251 2 1Z"/><path fill="#00204A" d="m1314 251 2 1ZM1508 250l2 1ZM1489 250l2 1Z"/><path fill="#003939" d="m1142 241 2 1Z"/><path d="m1278 216 2 1Z"/><path fill="#005" d="m1103 216 2 1Z"/><path fill="#00002A" d="m1372 215 2 1Z"/><path fill="#001919" d="m1453 214 2 1Z"/><path fill="#001959" d="m1197 213 2 1Z"/><path fill="#12124F" d="m1283 212 2 1Z"/><path fill="#121212" d="m1108 212 2 1Z"/><path fill="#123C3C" d="m1457 211 2 1Z"/><path fill="#001944" d="m1364 209 2 1Z"/><path fill="#00002A" d="m1535 208 2 1Z"/><path fill="#005" d="m1289 208 2 1Z"/><path fill="#00002A" d="m1114 208 2 1Z"/><path d="m1533 207 2 1ZM1291 207l2 1Z"/><path fill="#00002A" d="m1530 206 2 1Z"/><path fill="#002020" d="m1466 206 2 1ZM1358 206l2 1Z"/><path fill="#00002A" d="m1294 206 2 1Z"/><path fill="#002020" d="m1185 206 2 1ZM1119 206l2 1Z"/><path fill="#003535" d="m1528 205 2 1Z"/><path fill="#033" d="m1296 205 2 1ZM1182 205l2 1Z"/><path fill="#102535" d="m1353 204 2 1Z"/><path fill="#102939" d="m1124 204 2 1Z"/></svg>